<!--
  - Copyright (c) 2022.  Agency for Digital Government (DIGG)
  -
  - Licensed under the Apache License, Version 2.0 (the "License");
  - you may not use this file except in compliance with the License.
  - You may obtain a copy of the License at
  -
  -     http://www.apache.org/licenses/LICENSE-2.0
  -
  - Unless required by applicable law or agreed to in writing, software
  - distributed under the License is distributed on an "AS IS" BASIS,
  - WITHOUT WARRANTIES OR CONDITIONS OF ANY KIND, either express or implied.
  - See the License for the specific language governing permissions and
  - limitations under the License.
  -->

<svg id="Lager_1" data-name="Lager 1" xmlns="http://www.w3.org/2000/svg" viewBox="0 0 1695.22 554.19"><defs><style>.cls-1{fill:#f08371;}.cls-2{fill:#6d6059;}.cls-3{fill:#1d1d1b;}.cls-4{fill:#848d7a;}.cls-5{fill:#f5ac9a;}.cls-6{fill:#9c8f89;}.cls-7{fill:#f5ad71;}.cls-8{fill:#ee8632;}.cls-9{fill:#546850;}.cls-10{fill:none;}</style></defs><path class="cls-1" d="M424,257.77l23.39-23.39v-9.29a224.8,224.8,0,0,0-3.49-39.83l-72.78,72.79Z" transform="translate(-4.56 -3.76)"/><path class="cls-1" d="M430,139c-1.88-4.34-3.87-8.57-6-12.73L336.27,214q.53,5.44.53,11.07v33.14l7.9,0L439,163.93A210.9,210.9,0,0,0,430,139Z" transform="translate(-4.56 -3.76)"/><path class="cls-1" d="M392.34,79.05,313.78,157.6A114.93,114.93,0,0,1,328.12,182a104.24,104.24,0,0,1,3.74,10.08l82.8-82.79A221.1,221.1,0,0,0,392.34,79.05Z" transform="translate(-4.56 -3.76)"/><path class="cls-1" d="M350.41,42.07l-81.12,81.12a112.39,112.39,0,0,1,31.94,20.67L379.48,65.6A220.55,220.55,0,0,0,350.41,42.07Z" transform="translate(-4.56 -3.76)"/><path class="cls-1" d="M312.3,21.23q-7.11-3.06-14.39-5.57l-98.8,98.8h27.06a111.7,111.7,0,0,1,23.16,2.39L334.14,32A239.57,239.57,0,0,0,312.3,21.23Z" transform="translate(-4.56 -3.76)"/><path class="cls-1" d="M230.74,3.93,120.2,114.46h52.61L277.53,9.74A220.37,220.37,0,0,0,230.74,3.93Z" transform="translate(-4.56 -3.76)"/><polygon class="cls-1" points="147.33 0.11 36.74 110.7 55.7 110.7 89.35 110.7 199.94 0.11 147.33 0.11"/><polygon class="cls-1" points="68.43 0.11 0.4 68.14 0.4 110.7 10.44 110.7 121.03 0.11 68.43 0.11"/><polygon class="cls-1" points="0.4 0.11 0.4 41.84 42.13 0.11 0.4 0.11"/><polygon class="cls-2" points="674.79 554.18 707.85 554.18 707.85 521.13 674.79 554.18"/><polygon class="cls-2" points="707.1 443.56 596.47 554.18 648.68 554.18 707.85 495.02 707.85 443.56 707.1 443.56"/><polygon class="cls-2" points="652.55 443.56 638.41 443.56 628.76 443.56 518.14 554.18 570.36 554.18 680.98 443.56 652.55 443.56"/><polygon class="cls-2" points="586.16 443.56 560.05 443.56 550.44 443.56 486.62 507.37 486.62 554.18 492.03 554.18 602.65 443.56 586.16 443.56"/><polygon class="cls-2" points="486.62 443.56 486.62 481.25 524.32 443.56 486.62 443.56"/><rect class="cls-3" x="54.95" y="442.34" width="0.37" height="0.43"/><path class="cls-4" d="M1423.1,557.2V446.52a55.23,55.23,0,0,1-55.32-55.32V169.88a55.29,55.29,0,0,1,55.32-55.36h110.68a55.34,55.34,0,0,1,55.32,55.36v27.66h110.68V169.88a162.24,162.24,0,0,0-13.06-64.43,165.49,165.49,0,0,0-88.52-88.54,162,162,0,0,0-64.42-13H1423.1q-34.78,0-64.81,13a166.32,166.32,0,0,0-88.14,88.54,161.72,161.72,0,0,0-13.05,64.43V391.2q0,34.8,13.05,64.81a167.12,167.12,0,0,0,88.14,88.14q30,13.08,64.81,13.05" transform="translate(-4.56 -3.76)"/><polygon class="cls-1" points="55.32 405.71 165.63 405.71 165.63 364.91 128.63 364.91 128.63 327.97 165.63 327.97 165.63 254.13 128.76 254.13 128.76 290.95 55.32 290.95 55.32 405.71"/><rect class="cls-5" x="202.62" y="254.01" width="36.94" height="36.94"/><polygon class="cls-2" points="486.57 0 486.57 0.12 486.57 110.64 707.89 110.64 707.89 0.12 707.89 0 486.57 0"/><rect class="cls-6" x="468.03" y="290.96" width="36.94" height="36.94"/><polygon class="cls-6" points="652.57 327.97 652.57 147.61 541.89 147.61 541.89 327.97 504.98 327.97 504.98 364.91 541.89 364.91 541.89 443.53 652.57 443.53 652.57 364.92 615.63 364.92 615.63 327.97 652.57 327.97"/><rect class="cls-6" x="686.44" y="254.01" width="36.94" height="36.94"/><path class="cls-7" d="M1038.92,17.2v97.32a55.36,55.36,0,0,1,55.32,55.36v27.66h110.69V169.88a162,162,0,0,0-13.07-64.43,165.58,165.58,0,0,0-88.51-88.55,162.18,162.18,0,0,0-64.43-13V17.2Z" transform="translate(-4.56 -3.76)"/><path class="cls-7" d="M1094.23,258.4V369.08h0V391.2a55.28,55.28,0,0,1-55.32,55.33H928.24a55.24,55.24,0,0,1-55.32-55.33l0-110.66V258.4H762.28l0,132.8q0,34.8,13,64.82a167.11,167.11,0,0,0,88.13,88.12q30,13.1,64.81,13.07h110.68a161.35,161.35,0,0,0,64.43-13.07A166.27,166.27,0,0,0,1191.86,456a161,161,0,0,0,13.07-64.82V258.4Z" transform="translate(-4.56 -3.76)"/><polygon class="cls-8" points="1052.73 365.31 1052.73 254.63 1015.77 254.63 1015.77 291.58 978.83 291.58 978.83 254.63 905.31 254.63 905.31 328.37 979.19 328.37 979.19 365.31 1052.73 365.31"/><polygon class="cls-9" points="1400.17 254.63 1400.17 291.43 1437.09 291.43 1474.04 291.43 1474.04 328.37 1437.09 328.37 1437.09 365.31 1547.59 365.31 1547.59 365.2 1547.59 254.63 1400.17 254.63"/><path class="cls-5" d="M447.22,257.77H281.06v37H244.12v36.94h0v37h87c-1.08,3.42-1.78,7-3.21,10.28A111.2,111.2,0,0,1,269,437.85a107.34,107.34,0,0,1-43.11,8.67H4.56V557.21H225.87q45.84,0,86.17-17.41A222.05,222.05,0,0,0,429.83,422.05a210.69,210.69,0,0,0,14.77-53.32c1.58-10.73,2.89-32.85,2.89-32.85V257.77Z" transform="translate(-4.56 -3.76)"/><polygon class="cls-10" points="868.39 254.78 868.39 253.26 866.88 254.77 868.39 254.78"/><polygon class="cls-8" points="866.88 254.77 868.39 253.26 868.39 201.04 814.72 254.72 866.88 254.77"/><polygon class="cls-8" points="1010.95 110.7 1034.31 87.34 1034.31 35.13 958.73 110.7 1010.95 110.7"/><path class="cls-8" d="M873,169.79a55.28,55.28,0,0,1,55.29-55.33h8.94L1038.87,12.78V3.87H995.56L762.32,237.11v21.31l30.87,0L873,178.7Z" transform="translate(-4.56 -3.76)"/><path class="cls-8" d="M928.24,3.87c-3.84,0-7.63.13-11.38.37L762.71,158.39c-.25,3.77-.39,7.57-.39,11.4V211L969.45,3.87Z" transform="translate(-4.56 -3.76)"/><path class="cls-8" d="M863.46,16.89A168.64,168.64,0,0,0,810.9,52.45a166.84,166.84,0,0,0-35.53,53,159.87,159.87,0,0,0-7.53,21.75l118-118A154.83,154.83,0,0,0,863.46,16.89Z" transform="translate(-4.56 -3.76)"/><path class="cls-9" d="M1598.16,544.15a166.19,166.19,0,0,0,88.47-88.09,153.28,153.28,0,0,0,7.34-20.91L1577.81,551.31A159.61,159.61,0,0,0,1598.16,544.15Z" transform="translate(-4.56 -3.76)"/><path class="cls-9" d="M1699.69,391.28V351.11L1493.59,557.2h40.18q6.3,0,12.49-.45l153-153C1699.54,399.65,1699.69,395.5,1699.69,391.28Z" transform="translate(-4.56 -3.76)"/><path class="cls-9" d="M1699.69,272.78,1589.06,383.41v7.87a55.26,55.26,0,0,1-55.29,55.3h-7.88L1423.14,549.33v7.87h44.34L1699.69,325Z" transform="translate(-4.56 -3.76)"/><polygon class="cls-9" points="1443.01 442.82 1418.59 467.24 1418.59 519.46 1495.22 442.82 1443.01 442.82"/><polygon class="cls-9" points="1630.8 255.02 1584.51 301.32 1584.51 353.54 1683.02 255.02 1630.8 255.02"/><polygon class="cls-9" points="1584.51 255.02 1584.51 275.21 1604.69 255.02 1584.51 255.02"/></svg>