<!--
  - Copyright (c) 2022.  Agency for Digital Government (DIGG)
  -
  - Licensed under the Apache License, Version 2.0 (the "License");
  - you may not use this file except in compliance with the License.
  - You may obtain a copy of the License at
  -
  -     http://www.apache.org/licenses/LICENSE-2.0
  -
  - Unless required by applicable law or agreed to in writing, software
  - distributed under the License is distributed on an "AS IS" BASIS,
  - WITHOUT WARRANTIES OR CONDITIONS OF ANY KIND, either express or implied.
  - See the License for the specific language governing permissions and
  - limitations under the License.
  -->

<svg id="Lager_1" data-name="Lager 1" xmlns="http://www.w3.org/2000/svg" viewBox="0 0 3608.04 554.19"><defs><style>.cls-1{fill:#546850;}.cls-2{fill:#f08371;}.cls-3{fill:#6d6059;}.cls-4{fill:#1d1d1b;}.cls-5{fill:#848d7a;}.cls-6{fill:#f5ac9a;}.cls-7{fill:#9c8f89;}.cls-8{fill:#f5ad71;}.cls-9{fill:#ee8632;}.cls-10{fill:none;}</style></defs><path class="cls-1" d="M1952.08,179.39c-.55-9.34-1.17-18.79-1.82-28.08s-1.42-18.37-2.27-27-1.8-16.48-2.81-23.43l-.14-1H1921.9l-.32.59c-1.83,3.33-3.95,7.5-6.32,12.38s-4.88,10.24-7.45,15.91-5.14,11.55-7.67,17.51l-6.09,14.33L1888,146.33c-2.53-6-5.11-11.85-7.67-17.51s-5.08-11-7.45-15.91-4.52-9.09-6.32-12.38l-.32-.59H1842l-.14,1c-1,7-1.95,14.84-2.81,23.43s-1.62,17.66-2.27,27-1.26,18.68-1.82,28.08-1,18.28-1.43,26.49l-.06,1.19h25.29l0-1.1c.31-10.24.71-21.44,1.21-33.28.44-10.45,1.08-21.1,1.9-31.71q2,4.62,4.27,9.87c2.24,5.18,4.46,10.37,6.6,15.43s4.28,10.07,6.3,14.76,3.74,8.7,5.16,12l.3.69h18l.29-.69q2.13-5,5.16-12t6.3-14.76c2.17-5.12,4.39-10.31,6.6-15.43q2.28-5.25,4.27-9.88c.82,10.63,1.46,21.28,1.9,31.72.5,12,.91,23.22,1.21,33.28l0,1.1h25.29l0-1.19C1953.12,197.77,1952.64,188.85,1952.08,179.39Z" transform="translate(-22.36 -24.57)"/><path class="cls-1" d="M2005.27,207.07h25.87v-40.9c6.77-10.56,13.28-21.22,19.37-31.69s12.17-21.66,17.88-32.89l.84-1.65h-28.61l-.3.67c-3.22,7.21-6.77,14.44-10.57,21.51-3.52,6.55-7.26,13.18-11.12,19.73-3.86-6.57-7.53-13.2-10.93-19.72-3.7-7.08-7.2-14.32-10.4-21.52l-.3-.67h-30l.84,1.65c5.74,11.28,11.78,22.39,18,33s12.68,21.3,19.44,31.84Z" transform="translate(-22.36 -24.57)"/><path class="cls-1" d="M2178.37,99.94h-25.72v59.29c-3-4.48-6.23-9.15-9.59-13.94-4.1-5.85-8.31-11.62-12.51-17.14s-8.34-10.72-12.36-15.55-7.78-9-11.12-12.33l-.33-.33h-20.82V207.07h25.57V140.33a363.13,363.13,0,0,1,23,30.68c7.82,11.62,15.19,23.56,21.9,35.48l.32.58h21.62Z" transform="translate(-22.36 -24.57)"/><path class="cls-1" d="M2224.83,207.9c5.66.35,10.68.53,14.9.53a89.27,89.27,0,0,0,25.44-3.38,52.43,52.43,0,0,0,19.41-10.21,45.3,45.3,0,0,0,12.34-17.22c2.87-6.87,4.32-15,4.32-24.19,0-9.59-1.45-17.93-4.32-24.8a43.74,43.74,0,0,0-12.43-17.08,51.56,51.56,0,0,0-19.26-9.76,93.63,93.63,0,0,0-24.74-3.06c-4.23,0-9.37.18-15.28.53a140.55,140.55,0,0,0-17.16,2.06l-.93.17v104l.91.18A122.3,122.3,0,0,0,2224.83,207.9Zm8.17-22.23V121.45c1.18-.13,2.43-.22,3.74-.26,1.71,0,3.38-.07,5-.07,11.43,0,19.86,2.73,25.06,8.13s7.85,13.54,7.85,24.18c0,10.14-2.77,18.17-8.23,23.88s-14,8.58-25.44,8.58c-2.07,0-3.76,0-5.18-.08C2234.75,185.78,2233.83,185.73,2233,185.67Z" transform="translate(-22.36 -24.57)"/><rect class="cls-1" x="2303.09" y="75.37" width="25.87" height="107.13"/><path class="cls-1" d="M2440.76,186.08a31.83,31.83,0,0,1-3.85.41c-1.82.1-4.07.15-6.67.15a29.28,29.28,0,0,1-12.24-2.39,23.45,23.45,0,0,1-8.66-6.72,29.81,29.81,0,0,1-5.25-10.42,49.61,49.61,0,0,1-1.77-13.68c0-10.28,2.39-18.47,7.09-24.34s12.37-8.73,23-8.73a46.16,46.16,0,0,1,13.37,1.85,60.46,60.46,0,0,1,10.91,4.38l1.16.61,7.56-21-.78-.48c-.84-.53-2.23-1.26-4.11-2.18a48.91,48.91,0,0,0-7.28-2.71,85.67,85.67,0,0,0-10.43-2.3,83.69,83.69,0,0,0-13.58-1,58.85,58.85,0,0,0-20.9,3.7,48.56,48.56,0,0,0-17.12,10.92,51.6,51.6,0,0,0-11.45,17.56,63.31,63.31,0,0,0-4.17,23.73,68.46,68.46,0,0,0,3.78,23.54,48.52,48.52,0,0,0,10.77,17.5,46,46,0,0,0,16.83,10.86,61.49,61.49,0,0,0,21.81,3.71,121.17,121.17,0,0,0,23.37-1.92,90,90,0,0,0,13.81-3.61l.72-.28V149.42h-25.87Z" transform="translate(-22.36 -24.57)"/><polygon class="cls-1" points="2496.63 138.01 2534 138.01 2534 182.5 2559.88 182.5 2559.88 75.37 2534 75.37 2534 115.47 2496.63 115.47 2496.63 75.37 2470.75 75.37 2470.75 182.5 2496.63 182.5 2496.63 138.01"/><polygon class="cls-1" points="2665.19 160.41 2614.5 160.41 2614.5 137.41 2656.42 137.41 2656.42 115.77 2614.5 115.77 2614.5 97.46 2661.71 97.46 2661.71 75.37 2588.63 75.37 2588.63 182.5 2665.19 182.5 2665.19 160.41"/><polygon class="cls-1" points="2735.55 182.5 2735.55 97.76 2767.18 97.76 2767.18 75.37 2678.05 75.37 2678.05 97.76 2709.68 97.76 2709.68 182.5 2735.55 182.5"/><polygon class="cls-1" points="2863.42 160.41 2812.72 160.41 2812.72 137.41 2854.64 137.41 2854.64 115.77 2812.72 115.77 2812.72 97.46 2859.93 97.46 2859.93 75.37 2786.85 75.37 2786.85 182.5 2863.42 182.5 2863.42 160.41"/><path class="cls-1" d="M2933.29,140.33a363.13,363.13,0,0,1,23,30.68c7.82,11.62,15.19,23.56,21.9,35.48l.32.58h21.62V99.94h-25.72v59.29c-3-4.48-6.23-9.15-9.59-13.94-4.1-5.85-8.31-11.62-12.51-17.14S2944,117.43,2940,112.6s-7.78-9-11.12-12.33l-.33-.33h-20.82V207.07h25.57Z" transform="translate(-22.36 -24.57)"/><polygon class="cls-1" points="3075.56 97.46 3122.16 97.46 3122.16 75.37 3049.69 75.37 3049.69 182.5 3075.56 182.5 3075.56 139.22 3117.02 139.22 3117.02 117.13 3075.56 117.13 3075.56 97.46"/><path class="cls-1" d="M3187.88,88.37a13.46,13.46,0,0,0,17.85,0,11.84,11.84,0,0,0,3.86-9.25,11.81,11.81,0,0,0-3.86-9.24,13.44,13.44,0,0,0-17.85,0,11.81,11.81,0,0,0-3.86,9.24A11.78,11.78,0,0,0,3187.88,88.37Z" transform="translate(-22.36 -24.57)"/><path class="cls-1" d="M3263.76,177.52a66,66,0,0,0,4.09-24.09,64.75,64.75,0,0,0-4.17-24.1,50.6,50.6,0,0,0-11.45-17.57,47.51,47.51,0,0,0-17.05-10.69,60,60,0,0,0-20.67-3.55,58.45,58.45,0,0,0-20.29,3.55,48.17,48.17,0,0,0-17,10.69,51.54,51.54,0,0,0-11.68,17.55,62.84,62.84,0,0,0-4.33,24.12,64.75,64.75,0,0,0,4.17,24.1A49.82,49.82,0,0,0,3176.8,195a48,48,0,0,0,17,10.62,60.16,60.16,0,0,0,20.66,3.55,61.71,61.71,0,0,0,21-3.55,46.33,46.33,0,0,0,17-10.63A50,50,0,0,0,3263.76,177.52Zm-38,6.35a28.66,28.66,0,0,1-22.57,0,23,23,0,0,1-8.3-6.57,30.94,30.94,0,0,1-5.25-10.29,50.72,50.72,0,0,1,0-27.11,30.68,30.68,0,0,1,5.24-10.37,24,24,0,0,1,8.31-6.64,25.73,25.73,0,0,1,11.31-2.39,26.53,26.53,0,0,1,11.25,2.32,23,23,0,0,1,8.37,6.56,30.87,30.87,0,0,1,5.25,10.37,47.64,47.64,0,0,1,1.84,13.67,46.88,46.88,0,0,1-1.84,13.59,30.94,30.94,0,0,1-5.25,10.29A22.87,22.87,0,0,1,3225.76,183.87Z" transform="translate(-22.36 -24.57)"/><path class="cls-1" d="M3221.62,88.37a13.47,13.47,0,0,0,17.86,0,11.84,11.84,0,0,0,3.86-9.25,11.81,11.81,0,0,0-3.86-9.24,13.46,13.46,0,0,0-17.86,0,11.8,11.8,0,0,0-3.85,9.24A11.79,11.79,0,0,0,3221.62,88.37Z" transform="translate(-22.36 -24.57)"/><path class="cls-1" d="M3380,205.45c-1.81-3.81-3.8-7.77-5.93-11.78s-4.34-7.87-6.62-11.56-4.58-7.24-6.91-10.64c-2-2.9-3.94-5.55-5.78-7.9a34,34,0,0,0,13.7-10.61c3.51-4.76,5.29-11,5.29-18.6,0-12.15-4.39-21.25-13.06-27s-20.91-8.59-36.8-8.59c-4.32,0-9.31.2-14.83.61a135.22,135.22,0,0,0-16.1,2.13l-.92.18V207.07h25.87V168.79h10c1.88,2.27,3.78,4.82,5.67,7.59,2,3,4.09,6.15,6.13,9.42s4.07,6.72,6,10.25l5.85,10.44.33.58h28.84Zm-32.88-71.24c0,5-1.69,8.35-5.18,10.37-3.64,2.11-9.87,3.17-18.5,3.17h-5.53V121.49l2.81-.22c1.35-.1,2.87-.15,4.53-.15,7.34,0,12.93,1,16.63,3.11C3345.42,126.2,3347.14,129.47,3347.14,134.21Z" transform="translate(-22.36 -24.57)"/><path class="cls-1" d="M1913.92,280.55a51.53,51.53,0,0,0-19.27-9.76,93.55,93.55,0,0,0-24.73-3.06c-4.24,0-9.38.18-15.28.53a140.31,140.31,0,0,0-17.16,2.06l-.93.17v104l.91.18a121.9,121.9,0,0,0,16.8,2.22c5.66.35,10.67.53,14.9.53a89.27,89.27,0,0,0,25.44-3.38,52.47,52.47,0,0,0,19.4-10.21,45.2,45.2,0,0,0,12.34-17.22c2.87-6.87,4.33-15,4.33-24.19,0-9.59-1.46-17.93-4.33-24.8A43.62,43.62,0,0,0,1913.92,280.55ZM1904,322.43c0,10.14-2.77,18.17-8.24,23.88s-14,8.58-25.43,8.58c-2.07,0-3.77,0-5.18-.08-1,0-1.94-.08-2.77-.14V290.45c1.18-.13,2.44-.22,3.75-.26,1.7,0,3.37-.07,5-.07,11.42,0,19.85,2.73,25,8.13S1904,311.79,1904,322.43Z" transform="translate(-22.36 -24.57)"/><rect class="cls-1" x="1932.52" y="244.37" width="25.87" height="107.13"/><path class="cls-1" d="M2069.43,355.08a31.83,31.83,0,0,1-3.85.41c-1.82.1-4.07.15-6.67.15a29.24,29.24,0,0,1-12.24-2.39,23.37,23.37,0,0,1-8.66-6.72,29.64,29.64,0,0,1-5.25-10.42,49.61,49.61,0,0,1-1.77-13.68c0-10.28,2.39-18.47,7.09-24.34s12.37-8.73,23-8.73a46.21,46.21,0,0,1,13.37,1.85,60.46,60.46,0,0,1,10.91,4.38l1.16.61,7.56-21-.78-.48c-.84-.53-2.23-1.26-4.11-2.18a48.91,48.91,0,0,0-7.28-2.71,85.67,85.67,0,0,0-10.43-2.3,83.69,83.69,0,0,0-13.58-1,58.85,58.85,0,0,0-20.9,3.7,48.56,48.56,0,0,0-17.12,10.92,51.6,51.6,0,0,0-11.45,17.56,63.31,63.31,0,0,0-4.17,23.73A68.46,68.46,0,0,0,2008,346a48.52,48.52,0,0,0,10.77,17.5,46,46,0,0,0,16.82,10.86A61.59,61.59,0,0,0,2057.4,378a121.17,121.17,0,0,0,23.37-1.92,90,90,0,0,0,13.81-3.61l.72-.28V318.42h-25.87Z" transform="translate(-22.36 -24.57)"/><rect class="cls-1" x="2099.42" y="244.37" width="25.87" height="107.13"/><polygon class="cls-1" points="2234.09 244.37 2144.97 244.37 2144.97 266.76 2176.59 266.76 2176.59 351.5 2202.46 351.5 2202.46 266.76 2234.09 266.76 2234.09 244.37"/><path class="cls-1" d="M2351.36,343.22c-3.54-9.56-7.05-18.68-10.42-27.12s-6.77-16.52-10.13-24.17-6.76-15.1-10.2-22.34l-.31-.65h-23.8l-.31.63c-3.53,7.25-7,14.78-10.27,22.37s-6.66,15.74-10,24.17-6.85,17.51-10.4,27.11-7.3,20.07-11.24,31.34l-.53,1.51h26.94l.25-.79c1.16-3.63,2.4-7.39,3.71-11.17l3.72-10.74h39.34l3.75,10.71c1.31,3.76,2.57,7.52,3.75,11.2l.26.79h27.7l-.52-1.51C2358.68,363.32,2354.9,352.78,2351.36,343.22Zm-44.71-42.77L2308,297c.4,1,.86,2.15,1.35,3.42q1.53,3.93,3.56,9.08c1.37,3.47,2.81,7.29,4.28,11.35q2,5.51,4.12,11.51h-26.76c1.46-4,2.91-7.81,4.32-11.45q2.4-6.19,4.35-11.36T2306.65,300.45Z" transform="translate(-22.36 -24.57)"/><polygon class="cls-1" points="2384.95 244.37 2359.08 244.37 2359.08 351.5 2431.41 351.5 2431.41 328.96 2384.95 328.96 2384.95 244.37"/><polygon class="cls-1" points="2494.2 351.5 2520.08 351.5 2520.08 308.22 2561.54 308.22 2561.54 286.13 2520.08 286.13 2520.08 266.46 2566.68 266.46 2566.68 244.37 2494.2 244.37 2494.2 351.5"/><path class="cls-1" d="M2696.74,280.76a47.43,47.43,0,0,0-17-10.69,59.92,59.92,0,0,0-20.66-3.55,58.45,58.45,0,0,0-20.29,3.55,48.17,48.17,0,0,0-17,10.69A51.71,51.71,0,0,0,2610,298.31a62.85,62.85,0,0,0-4.32,24.12,64.75,64.75,0,0,0,4.17,24.1A49.68,49.68,0,0,0,2621.32,364a48,48,0,0,0,17,10.62,60.21,60.21,0,0,0,20.67,3.55,61.71,61.71,0,0,0,21-3.55,46.41,46.41,0,0,0,17-10.63,50,50,0,0,0,11.23-17.49,66,66,0,0,0,4.09-24.09,65,65,0,0,0-4.17-24.1A50.48,50.48,0,0,0,2696.74,280.76Zm-26.46,72.11a28.66,28.66,0,0,1-22.57,0,23,23,0,0,1-8.3-6.57,30.75,30.75,0,0,1-5.25-10.29,50.85,50.85,0,0,1,0-27.11,30.87,30.87,0,0,1,5.25-10.37,24,24,0,0,1,8.31-6.64,25.73,25.73,0,0,1,11.31-2.39,26.53,26.53,0,0,1,11.25,2.32,23,23,0,0,1,8.36,6.56,30.69,30.69,0,0,1,5.25,10.37,47.28,47.28,0,0,1,1.85,13.67,46.53,46.53,0,0,1-1.85,13.59,30.92,30.92,0,0,1-5.24,10.29A23,23,0,0,1,2670.28,352.87Z" transform="translate(-22.36 -24.57)"/><path class="cls-1" d="M2641.32,235.5a13,13,0,0,0-8.92,3.39,13,13,0,0,0,0,18.48,13.46,13.46,0,0,0,17.85,0,13,13,0,0,0,0-18.49A13.06,13.06,0,0,0,2641.32,235.5Z" transform="translate(-22.36 -24.57)"/><path class="cls-1" d="M2684,238.89a13.44,13.44,0,0,0-17.85,0,13,13,0,0,0,0,18.48,13.46,13.46,0,0,0,17.85,0,13,13,0,0,0,0-18.49Z" transform="translate(-22.36 -24.57)"/><path class="cls-1" d="M2818.61,362.67c-2.12-4-4.34-7.87-6.62-11.56s-4.58-7.24-6.91-10.64c-2-2.9-3.94-5.55-5.79-7.9A34,34,0,0,0,2813,322c3.51-4.76,5.29-11,5.29-18.6,0-12.15-4.4-21.25-13.06-27s-20.91-8.59-36.8-8.59c-4.32,0-9.31.2-14.84.61a135.33,135.33,0,0,0-16.09,2.13l-.92.18V376.07h25.87V337.79h10c1.87,2.27,3.78,4.82,5.67,7.59,2,3,4.09,6.15,6.13,9.42s4.07,6.72,6,10.25l5.85,10.44.33.58h28.84l-.77-1.62C2822.73,370.64,2820.74,366.68,2818.61,362.67Zm-27-59.46c0,5-1.7,8.35-5.19,10.37s-9.86,3.17-18.49,3.17h-5.53V290.49l2.81-.22c1.35-.1,2.87-.15,4.53-.15,7.33,0,12.93,1.05,16.62,3.11C2789.94,295.2,2791.66,298.47,2791.66,303.21Z" transform="translate(-22.36 -24.57)"/><path class="cls-1" d="M2942.83,268.94h-27.55l-.26.78c-1.95,6-4.15,12.65-6.55,19.64s-4.89,14.09-7.33,20.91-4.85,13.44-7.25,20c-1.92,5.24-3.73,9.92-5.41,14-1.76-4.08-3.6-8.78-5.47-14l-7.17-20c-2.5-7-5-14-7.34-20.92s-4.58-13.53-6.54-19.59l-.25-.78h-28.43l.5,1.49c2.2,6.56,4.87,14.2,7.95,22.73s6.47,17.48,10.09,26.65,7.54,18.73,11.58,28.15,8.22,18.69,12.37,27.46l.31.65h24l.3-.65c4.17-8.78,8.31-18,12.31-27.42s7.87-18.89,11.51-28.18,7-18.16,10-26.64c3-8.27,5.72-15.92,8.11-22.73Z" transform="translate(-22.36 -24.57)"/><path class="cls-1" d="M3035.61,343.22c-3.54-9.56-7.05-18.68-10.43-27.12s-6.77-16.52-10.12-24.17-6.77-15.1-10.2-22.34l-.31-.65h-23.8l-.31.63c-3.53,7.25-7,14.78-10.27,22.37s-6.66,15.74-10,24.17-6.86,17.51-10.41,27.11-7.3,20.07-11.23,31.34l-.53,1.51h26.94l.25-.79c1.15-3.63,2.4-7.39,3.71-11.17l3.72-10.74h39.34l3.75,10.71c1.31,3.76,2.57,7.52,3.75,11.2l.25.79h27.71l-.53-1.51C3042.93,363.32,3039.14,352.78,3035.61,343.22Zm-44.71-42.77,1.32-3.47,1.35,3.42q1.53,3.93,3.56,9.08c1.36,3.47,2.8,7.29,4.28,11.35q2,5.51,4.12,11.51h-26.76c1.45-4,2.9-7.81,4.32-11.45q2.4-6.19,4.34-11.36T2990.9,300.45Z" transform="translate(-22.36 -24.57)"/><polygon class="cls-1" points="3068.44 244.37 3042.57 244.37 3042.57 351.5 3114.9 351.5 3114.9 328.96 3068.44 328.96 3068.44 244.37"/><polygon class="cls-1" points="3117.93 266.76 3149.55 266.76 3149.55 351.5 3175.42 351.5 3175.42 266.76 3207.05 266.76 3207.05 244.37 3117.93 244.37 3117.93 266.76"/><path class="cls-1" d="M3315.82,328.23c-3-4.48-6.24-9.15-9.59-13.94-4.1-5.85-8.31-11.62-12.51-17.14s-8.34-10.72-12.37-15.55-7.78-9-11.11-12.33l-.33-.33h-20.82V376.07h25.57V309.33a363.13,363.13,0,0,1,23,30.68c7.82,11.62,15.18,23.56,21.89,35.48l.33.58h21.62V268.94h-25.72Z" transform="translate(-22.36 -24.57)"/><rect class="cls-1" x="3347.93" y="244.37" width="25.87" height="107.13"/><path class="cls-1" d="M3490.89,328.23c-3-4.48-6.23-9.15-9.59-13.94-4.1-5.85-8.31-11.62-12.51-17.14s-8.34-10.72-12.36-15.55-7.78-9-11.12-12.33l-.33-.33h-20.82V376.07h25.57V309.33a363.13,363.13,0,0,1,23,30.68c7.82,11.62,15.19,23.56,21.9,35.48l.32.58h21.62V268.94h-25.72Z" transform="translate(-22.36 -24.57)"/><path class="cls-1" d="M3604.53,318.42v36.66a31.83,31.83,0,0,1-3.85.41c-1.82.1-4.07.15-6.67.15a29.28,29.28,0,0,1-12.24-2.39,23.45,23.45,0,0,1-8.66-6.72,29.81,29.81,0,0,1-5.25-10.42,49.61,49.61,0,0,1-1.77-13.68c0-10.28,2.39-18.47,7.09-24.34s12.37-8.73,23-8.73a46.21,46.21,0,0,1,13.37,1.85,60.46,60.46,0,0,1,10.91,4.38l1.16.61,7.56-21-.78-.48c-.84-.53-2.23-1.26-4.11-2.18a48.91,48.91,0,0,0-7.28-2.71,85.67,85.67,0,0,0-10.43-2.3,83.69,83.69,0,0,0-13.58-1,58.85,58.85,0,0,0-20.9,3.7,48.56,48.56,0,0,0-17.12,10.92,51.6,51.6,0,0,0-11.45,17.56,63.31,63.31,0,0,0-4.17,23.73,68.46,68.46,0,0,0,3.78,23.54,48.52,48.52,0,0,0,10.77,17.5,46,46,0,0,0,16.83,10.86A61.49,61.49,0,0,0,3592.5,378a121.17,121.17,0,0,0,23.37-1.92,90,90,0,0,0,13.81-3.61l.72-.28V318.42Z" transform="translate(-22.36 -24.57)"/><path class="cls-1" d="M1886.61,522.93c-.87-2.69-1.79-5.46-2.79-8.3s-2-5.68-3-8.49h-30.31l-3,8.51c-1,2.84-1.9,5.61-2.75,8.28H1826.7q4.38-12.54,8.31-23.18t7.7-20.05q3.75-9.4,7.41-17.86t7.58-16.52h16.57q3.82,8.07,7.53,16.52t7.49,17.86q3.76,9.42,7.7,20.05t8.33,23.18Zm-21-60c-.39,1.12-1,2.66-1.71,4.6s-1.61,4.18-2.57,6.72-2,5.34-3.21,8.4-2.39,6.26-3.62,9.62h22.2q-1.79-5.06-3.45-9.65c-1.12-3.06-2.17-5.87-3.18-8.41s-1.88-4.79-2.63-6.73S1866.08,464,1865.62,462.91Z" transform="translate(-22.36 -24.57)"/><path class="cls-1" d="M1970.05,515.54q0,14.44-7.33,21.45T1940,544a61.89,61.89,0,0,1-10.75-1,68.13,68.13,0,0,1-10-2.52l2.91-14a49.67,49.67,0,0,0,8.23,2.46,48.25,48.25,0,0,0,9.8.9q7.17,0,10.14-3.14a11.29,11.29,0,0,0,3-8.06v-2.13a27,27,0,0,1-5.55,1.85,29.46,29.46,0,0,1-6.21.61q-12.21,0-18.71-7.22t-6.49-20.21a33.24,33.24,0,0,1,2-11.82,25.29,25.29,0,0,1,5.88-9.13,26.49,26.49,0,0,1,9.47-5.88,36.29,36.29,0,0,1,12.65-2.07c2,0,4.09.1,6.22.28s4.23.43,6.32.73,4.09.65,6,1.06,3.6.84,5.09,1.29Zm-36.62-24q0,14,11.31,14a16.66,16.66,0,0,0,4.82-.68,18.47,18.47,0,0,0,3.81-1.56V476.68c-.83-.15-1.8-.28-2.92-.39s-2.42-.17-3.92-.17q-6.6,0-9.85,4.37A18.05,18.05,0,0,0,1933.43,491.58Z" transform="translate(-22.36 -24.57)"/><path class="cls-1" d="M1988,493.93a35.93,35.93,0,0,1,2.41-13.72,29.2,29.2,0,0,1,6.33-9.8,26.39,26.39,0,0,1,9-5.94,28.32,28.32,0,0,1,10.47-2q12.54,0,19.83,7.67t7.28,22.57c0,1,0,2-.12,3.19s-.15,2.18-.22,3.08h-37.85a11.05,11.05,0,0,0,4.81,8.17q4.26,3,11.42,3a48.21,48.21,0,0,0,9-.84,34,34,0,0,0,7.22-2.07l2.24,13.55a22.92,22.92,0,0,1-3.58,1.34,47.62,47.62,0,0,1-5,1.18q-2.74.49-5.88.84a60,60,0,0,1-6.27.33,37.1,37.1,0,0,1-13.84-2.35,26.92,26.92,0,0,1-9.74-6.44,25.4,25.4,0,0,1-5.71-9.69A38.38,38.38,0,0,1,1988,493.93Zm39.2-6.39a17.54,17.54,0,0,0-.73-4.14,10.44,10.44,0,0,0-1.9-3.58,10.15,10.15,0,0,0-3.25-2.58,10.61,10.61,0,0,0-4.87-1,11.29,11.29,0,0,0-4.82.95,10.17,10.17,0,0,0-3.36,2.52,11.35,11.35,0,0,0-2.07,3.64,23.5,23.5,0,0,0-1.06,4.2Z" transform="translate(-22.36 -24.57)"/><path class="cls-1" d="M2061.22,466a93.12,93.12,0,0,1,11-2.29,90.05,90.05,0,0,1,14.11-1.07,34.53,34.53,0,0,1,12.49,2,19,19,0,0,1,7.9,5.54,21.67,21.67,0,0,1,4.14,8.52,45.29,45.29,0,0,1,1.23,11v33.26h-16.69V491.69q0-8.07-2.12-11.43t-8-3.36c-1.19,0-2.46.06-3.8.17s-2.54.25-3.59.39v45.47h-16.68Z" transform="translate(-22.36 -24.57)"/><path class="cls-1" d="M2129.42,493.48a34.74,34.74,0,0,1,2.07-12A28.21,28.21,0,0,1,2147,464.92a31.48,31.48,0,0,1,12.77-2.46,39.88,39.88,0,0,1,16.24,3.25L2172.54,479a44.22,44.22,0,0,0-5.15-1.57,27.43,27.43,0,0,0-6.28-.67q-7.38,0-11,4.59t-3.64,12.1q0,7.95,3.42,12.32t11.93,4.37a41.26,41.26,0,0,0,6.49-.56,28.12,28.12,0,0,0,6.39-1.79l2.35,13.66a39.46,39.46,0,0,1-7.28,2.13,48.54,48.54,0,0,1-9.63.89,36.15,36.15,0,0,1-13.89-2.41,26,26,0,0,1-9.58-6.55,25.45,25.45,0,0,1-5.48-9.8A41.47,41.47,0,0,1,2129.42,493.48Z" transform="translate(-22.36 -24.57)"/><path class="cls-1" d="M2245.67,464q-5.05,17-10.55,31.91t-12,28.9a66,66,0,0,1-4.71,8.57,26.34,26.34,0,0,1-5.16,5.82,18.17,18.17,0,0,1-6.34,3.36,28.62,28.62,0,0,1-8.24,1.06,34,34,0,0,1-7.23-.72,32.13,32.13,0,0,1-5.44-1.63l2.91-13.33a29.09,29.09,0,0,0,4.59,1.24,26.47,26.47,0,0,0,4.26.33q4.49,0,6.89-2.41a19.18,19.18,0,0,0,4.09-6.66q-5.71-11.19-11.43-25.14a313.5,313.5,0,0,1-10.75-31.3h17.69q1.13,4.37,2.65,9.46t3.2,10.3q1.7,5.2,3.43,10.14t3.32,9q1.47-4,3-9t3.09-10.14q1.51-5.21,2.92-10.3t2.54-9.46Z" transform="translate(-22.36 -24.57)"/><path class="cls-1" d="M2317,436a36.19,36.19,0,0,1,8.62,1,40.69,40.69,0,0,1,6,1.85l-3.25,13.32a22,22,0,0,0-4.87-1.51,26.48,26.48,0,0,0-4.87-.5,13.64,13.64,0,0,0-5.1.84,7.81,7.81,0,0,0-3.24,2.29,8.76,8.76,0,0,0-1.68,3.48,17.73,17.73,0,0,0-.51,4.36V464h20.61v13.88h-20.61v45h-16.68v-62q0-11.43,6.44-18.14T2317,436Z" transform="translate(-22.36 -24.57)"/><path class="cls-1" d="M2398.88,493.37a38.16,38.16,0,0,1-2,12.71,27.42,27.42,0,0,1-5.82,9.85,26.1,26.1,0,0,1-9.13,6.33A30.35,30.35,0,0,1,2370,524.5a30,30,0,0,1-11.81-2.24,26.1,26.1,0,0,1-9.13-6.33,28.68,28.68,0,0,1-5.93-9.85,36.45,36.45,0,0,1-2.13-12.71,35.34,35.34,0,0,1,2.18-12.66,28.69,28.69,0,0,1,6.05-9.74,27.17,27.17,0,0,1,9.18-6.27,29.46,29.46,0,0,1,11.59-2.24,29.77,29.77,0,0,1,11.71,2.24,26.58,26.58,0,0,1,9.13,6.27,28.59,28.59,0,0,1,5.93,9.74A36,36,0,0,1,2398.88,493.37Zm-17,0q0-7.72-3.08-12.15a10.09,10.09,0,0,0-8.8-4.43,10.21,10.21,0,0,0-8.84,4.43q-3.15,4.42-3.14,12.15t3.14,12.26a10.12,10.12,0,0,0,8.84,4.54,10,10,0,0,0,8.8-4.54Q2381.85,501.1,2381.86,493.37Z" transform="translate(-22.36 -24.57)"/><path class="cls-1" d="M2452.3,478.81c-1.49-.37-3.25-.77-5.26-1.18a32.69,32.69,0,0,0-6.5-.61,29.48,29.48,0,0,0-3.75.28,21.55,21.55,0,0,0-3.3.61v45H2416.8V467.16a102.55,102.55,0,0,1,10.58-3,61.22,61.22,0,0,1,13.61-1.4c.89,0,2,.06,3.25.17s2.53.26,3.8.45,2.54.41,3.81.67a18.2,18.2,0,0,1,3.25.95Z" transform="translate(-22.36 -24.57)"/><path class="cls-1" d="M2570.12,484.07a45.44,45.44,0,0,1-3.14,17.59,32.66,32.66,0,0,1-8.9,12.43,38,38,0,0,1-14.06,7.39,65.22,65.22,0,0,1-18.59,2.46q-4.69,0-11-.39a89.45,89.45,0,0,1-12.32-1.62v-75.6a101.94,101.94,0,0,1,12.6-1.51c4.36-.26,8.12-.39,11.25-.39a67.73,67.73,0,0,1,18.09,2.24,36.94,36.94,0,0,1,13.94,7.05,31.39,31.39,0,0,1,9,12.32A46.66,46.66,0,0,1,2570.12,484.07Zm-50.51,24.64c.82.08,1.77.13,2.85.17s2.37.06,3.87.06q13.1,0,19.43-6.61t6.33-18.26q0-12.19-6.05-18.48t-19.15-6.27c-1.2,0-2.43,0-3.7.06a35.41,35.41,0,0,0-3.58.28Z" transform="translate(-22.36 -24.57)"/><path class="cls-1" d="M2606.85,447a9.18,9.18,0,0,1-3,7.23,10.63,10.63,0,0,1-14,0,10.3,10.3,0,0,1,0-14.45,10.63,10.63,0,0,1,14,0A9.14,9.14,0,0,1,2606.85,447Zm-1.57,75.93H2588.6V464h16.68Z" transform="translate(-22.36 -24.57)"/><path class="cls-1" d="M2676.85,515.54q0,14.44-7.34,21.45t-22.68,7a62.06,62.06,0,0,1-10.75-1,68.45,68.45,0,0,1-10-2.52l2.92-14a49.39,49.39,0,0,0,8.23,2.46,48.18,48.18,0,0,0,9.8.9q7.16,0,10.13-3.14a11.25,11.25,0,0,0,3-8.06v-2.13a26.92,26.92,0,0,1-5.54,1.85,29.62,29.62,0,0,1-6.22.61q-12.21,0-18.7-7.22t-6.5-20.21a33,33,0,0,1,2-11.82,25,25,0,0,1,5.88-9.13,26.44,26.44,0,0,1,9.46-5.88,36.3,36.3,0,0,1,12.66-2.07c2,0,4.08.1,6.21.28s4.24.43,6.33.73,4.09.65,6,1.06,3.6.84,5.1,1.29Zm-36.62-24q0,14,11.31,14a16.59,16.59,0,0,0,4.81-.68,18.47,18.47,0,0,0,3.81-1.56V476.68q-1.23-.23-2.91-.39c-1.12-.11-2.43-.17-3.92-.17q-6.61,0-9.86,4.37A18.12,18.12,0,0,0,2640.23,491.58Z" transform="translate(-22.36 -24.57)"/><path class="cls-1" d="M2715.82,447a9.18,9.18,0,0,1-3,7.23,10.63,10.63,0,0,1-14,0,10.3,10.3,0,0,1,0-14.45,10.63,10.63,0,0,1,14,0A9.14,9.14,0,0,1,2715.82,447Zm-1.57,75.93h-16.68V464h16.68Z" transform="translate(-22.36 -24.57)"/><path class="cls-1" d="M2734.41,449.35l16.69-2.68V464h20v13.88h-20v20.72A16.4,16.4,0,0,0,2753,507q1.85,3.14,7.44,3.14a31.57,31.57,0,0,0,5.55-.51,27.72,27.72,0,0,0,5.2-1.4l2.36,13a47.06,47.06,0,0,1-6.72,2.12,39,39,0,0,1-9.07.9,29.94,29.94,0,0,1-11.32-1.85,17.75,17.75,0,0,1-7.16-5.15,19.07,19.07,0,0,1-3.76-8,47.2,47.2,0,0,1-1.06-10.41Z" transform="translate(-22.36 -24.57)"/><path class="cls-1" d="M2810.9,462.46a38.61,38.61,0,0,1,12.32,1.68,19.12,19.12,0,0,1,7.9,4.81,17.77,17.77,0,0,1,4.2,7.62,37.65,37.65,0,0,1,1.23,10v34.72q-3.59.78-10,1.84a95.57,95.57,0,0,1-15.45,1.07,49.06,49.06,0,0,1-10.36-1,22.29,22.29,0,0,1-8-3.31,15,15,0,0,1-5.15-6,20.57,20.57,0,0,1-1.79-9.07,17.09,17.09,0,0,1,2.07-8.73,16,16,0,0,1,5.54-5.72,25.39,25.39,0,0,1,8-3.08,45,45,0,0,1,9.3-.95,54.62,54.62,0,0,1,5.77.28,25.64,25.64,0,0,1,4.08.73v-1.57a9.27,9.27,0,0,0-2.57-6.83q-2.58-2.58-9-2.58a57.09,57.09,0,0,0-8.4.62,35.88,35.88,0,0,0-7.17,1.74l-2.13-13.44c1-.3,2.19-.62,3.64-1s3-.63,4.76-.89,3.53-.49,5.43-.67S2809,462.46,2810.9,462.46Zm1.35,48.83c1.64,0,3.21,0,4.7-.12a31.52,31.52,0,0,0,3.58-.33V498.18c-.67-.14-1.68-.29-3-.44a33.62,33.62,0,0,0-3.7-.23,34.24,34.24,0,0,0-4.42.28,11.42,11.42,0,0,0-3.64,1.07,6.16,6.16,0,0,0-2.46,2.12,5.93,5.93,0,0,0-.9,3.36q0,3.93,2.63,5.44A14.65,14.65,0,0,0,2812.25,511.29Z" transform="translate(-22.36 -24.57)"/><path class="cls-1" d="M2880.23,524.05a41.61,41.61,0,0,1-11.82-1.56,17.62,17.62,0,0,1-7.17-4.09,13.51,13.51,0,0,1-3.58-6.39,34.12,34.12,0,0,1-.95-8.45V438.71L2873.4,436V500.2a22.34,22.34,0,0,0,.33,4,7,7,0,0,0,1.29,3,6.8,6.8,0,0,0,2.74,2,15.16,15.16,0,0,0,4.82,1Z" transform="translate(-22.36 -24.57)"/><path class="cls-1" d="M2968,458.76q-12.21,0-17.64,6.78T2945,484.07a37.47,37.47,0,0,0,1.34,10.36,22.88,22.88,0,0,0,4,8,18.27,18.27,0,0,0,6.72,5.21,22.44,22.44,0,0,0,9.41,1.85q2.91,0,5-.12a23.4,23.4,0,0,0,3.64-.44v-27h17.48v38.42a66.24,66.24,0,0,1-10.08,2.63,88.87,88.87,0,0,1-17.14,1.4,44.59,44.59,0,0,1-15.85-2.69,33,33,0,0,1-12.15-7.84,35,35,0,0,1-7.78-12.65,49.71,49.71,0,0,1-2.75-17.14,45.76,45.76,0,0,1,3-17.24,37.1,37.1,0,0,1,8.29-12.72,34.83,34.83,0,0,1,12.37-7.89,42.61,42.61,0,0,1,15.18-2.69,60.89,60.89,0,0,1,9.91.73,60.13,60.13,0,0,1,7.61,1.68,35,35,0,0,1,5.27,2c1.38.67,2.37,1.19,3,1.57l-5,14a46.82,46.82,0,0,0-8.24-3.3A35,35,0,0,0,2968,458.76Z" transform="translate(-22.36 -24.57)"/><path class="cls-1" d="M3067.82,493.37a38.42,38.42,0,0,1-2,12.71,27.57,27.57,0,0,1-5.82,9.85,26.19,26.19,0,0,1-9.13,6.33,30.35,30.35,0,0,1-11.93,2.24,30,30,0,0,1-11.81-2.24,26.1,26.1,0,0,1-9.13-6.33,28.86,28.86,0,0,1-5.94-9.85,36.45,36.45,0,0,1-2.12-12.71,35.12,35.12,0,0,1,2.18-12.66,28.53,28.53,0,0,1,6.05-9.74,27,27,0,0,1,9.18-6.27,31.39,31.39,0,0,1,23.29,0,26.49,26.49,0,0,1,9.13,6.27,28.46,28.46,0,0,1,5.94,9.74A36,36,0,0,1,3067.82,493.37Zm-17,0q0-7.72-3.08-12.15a10.07,10.07,0,0,0-8.79-4.43,10.22,10.22,0,0,0-8.85,4.43q-3.14,4.42-3.13,12.15t3.13,12.26a10.13,10.13,0,0,0,8.85,4.54,10,10,0,0,0,8.79-4.54Q3050.8,501.1,3050.79,493.37Z" transform="translate(-22.36 -24.57)"/><path class="cls-1" d="M3101.83,522.93q-5.73-11.19-11.63-26.2T3079,464h17.69q1.13,4.37,2.64,9.46t3.15,10.3q1.64,5.2,3.27,10.14t3.2,9q1.47-4,3.15-9t3.32-10.14q1.62-5.21,3.14-10.3t2.65-9.46h17.26q-5.29,17.69-11.18,32.7t-11.63,26.2Z" transform="translate(-22.36 -24.57)"/><path class="cls-1" d="M3149.57,493.93a35.93,35.93,0,0,1,2.41-13.72,29.2,29.2,0,0,1,6.33-9.8,26.39,26.39,0,0,1,9-5.94,28.32,28.32,0,0,1,10.47-2q12.54,0,19.83,7.67t7.28,22.57c0,1,0,2-.12,3.19s-.15,2.18-.22,3.08h-37.85a11.05,11.05,0,0,0,4.81,8.17q4.26,3,11.42,3a48.28,48.28,0,0,0,9-.84,34,34,0,0,0,7.22-2.07l2.24,13.55a22.92,22.92,0,0,1-3.58,1.34,47.62,47.62,0,0,1-5,1.18q-2.74.49-5.88.84a60,60,0,0,1-6.27.33,37.1,37.1,0,0,1-13.84-2.35,26.92,26.92,0,0,1-9.74-6.44,25.4,25.4,0,0,1-5.71-9.69A38.38,38.38,0,0,1,3149.57,493.93Zm39.2-6.39a17.54,17.54,0,0,0-.73-4.14,10.44,10.44,0,0,0-1.9-3.58,10.15,10.15,0,0,0-3.25-2.58,10.61,10.61,0,0,0-4.87-1,11.26,11.26,0,0,0-4.82.95,10.17,10.17,0,0,0-3.36,2.52,11.35,11.35,0,0,0-2.07,3.64,23.5,23.5,0,0,0-1.06,4.2Z" transform="translate(-22.36 -24.57)"/><path class="cls-1" d="M3258.32,478.81c-1.5-.37-3.25-.77-5.27-1.18a32.52,32.52,0,0,0-6.49-.61,29.35,29.35,0,0,0-3.75.28,22,22,0,0,0-3.31.61v45h-16.68V467.16a102.55,102.55,0,0,1,10.58-3,61.16,61.16,0,0,1,13.61-1.4c.89,0,2,.06,3.24.17s2.54.26,3.81.45,2.54.41,3.81.67a18.2,18.2,0,0,1,3.25.95Z" transform="translate(-22.36 -24.57)"/><path class="cls-1" d="M3275.12,466a93.12,93.12,0,0,1,11-2.29,90.15,90.15,0,0,1,14.11-1.07,34.49,34.49,0,0,1,12.49,2,19,19,0,0,1,7.9,5.54,21.67,21.67,0,0,1,4.14,8.52,45.29,45.29,0,0,1,1.23,11v33.26h-16.68V491.69q0-8.07-2.13-11.43t-8-3.36c-1.2,0-2.47.06-3.81.17s-2.54.25-3.59.39v45.47h-16.68Z" transform="translate(-22.36 -24.57)"/><path class="cls-1" d="M3378.49,491.69q0-8.07-2.07-11.43t-7.12-3.36c-1,0-2.12.06-3.24.17s-2.21.25-3.25.39v45.47h-16.69V466q2.13-.56,5-1.17c1.91-.41,3.92-.79,6.05-1.12s4.31-.6,6.55-.79,4.45-.28,6.61-.28a27.82,27.82,0,0,1,10.36,1.62,23.67,23.67,0,0,1,6.55,3.87,31.33,31.33,0,0,1,16.8-5.49,29.5,29.5,0,0,1,11.59,2,17.53,17.53,0,0,1,7.23,5.54,21,21,0,0,1,3.69,8.52,54.26,54.26,0,0,1,1,11v33.26h-16.69V491.69q0-8.07-2.07-11.43t-7.11-3.36a14.94,14.94,0,0,0-3.75.68,14.48,14.48,0,0,0-4,1.68,25.47,25.47,0,0,1,1,5.43c.15,1.9.22,3.94.22,6.1v32.14h-16.68Z" transform="translate(-22.36 -24.57)"/><path class="cls-1" d="M3444.9,493.93a35.93,35.93,0,0,1,2.41-13.72,29.2,29.2,0,0,1,6.33-9.8,26.39,26.39,0,0,1,9-5.94,28.32,28.32,0,0,1,10.47-2q12.54,0,19.83,7.67t7.28,22.57c0,1,0,2-.12,3.19s-.15,2.18-.22,3.08H3462a11.05,11.05,0,0,0,4.81,8.17q4.26,3,11.42,3a48.28,48.28,0,0,0,9-.84,34,34,0,0,0,7.22-2.07l2.24,13.55a22.92,22.92,0,0,1-3.58,1.34,47.62,47.62,0,0,1-5,1.18q-2.74.49-5.88.84a60,60,0,0,1-6.27.33,37.1,37.1,0,0,1-13.84-2.35,26.92,26.92,0,0,1-9.74-6.44,25.4,25.4,0,0,1-5.71-9.69A38.38,38.38,0,0,1,3444.9,493.93Zm39.2-6.39a17.54,17.54,0,0,0-.73-4.14,10.44,10.44,0,0,0-1.9-3.58,10.15,10.15,0,0,0-3.25-2.58,10.61,10.61,0,0,0-4.87-1,11.26,11.26,0,0,0-4.82.95,10.17,10.17,0,0,0-3.36,2.52,11.35,11.35,0,0,0-2.07,3.64,23.5,23.5,0,0,0-1.06,4.2Z" transform="translate(-22.36 -24.57)"/><path class="cls-1" d="M3518.15,466a93.12,93.12,0,0,1,11-2.29,90.05,90.05,0,0,1,14.11-1.07,34.53,34.53,0,0,1,12.49,2,19,19,0,0,1,7.9,5.54,21.67,21.67,0,0,1,4.14,8.52,45.29,45.29,0,0,1,1.23,11v33.26H3552.3V491.69q0-8.07-2.12-11.43t-8-3.36c-1.19,0-2.46.06-3.8.17s-2.54.25-3.59.39v45.47h-16.68Z" transform="translate(-22.36 -24.57)"/><path class="cls-1" d="M3588.59,449.35l16.69-2.68V464h20v13.88h-20v20.72a16.5,16.5,0,0,0,1.84,8.4q1.86,3.14,7.45,3.14a31.66,31.66,0,0,0,5.55-.51,27.72,27.72,0,0,0,5.2-1.4l2.36,13a47.06,47.06,0,0,1-6.72,2.12,39.06,39.06,0,0,1-9.08.9,29.92,29.92,0,0,1-11.31-1.85,17.75,17.75,0,0,1-7.16-5.15,19.07,19.07,0,0,1-3.76-8,47.2,47.2,0,0,1-1.06-10.41Z" transform="translate(-22.36 -24.57)"/><path class="cls-2" d="M441.83,278.58l23.4-23.4v-9.29a224.89,224.89,0,0,0-3.49-39.83L389,278.85Z" transform="translate(-22.36 -24.57)"/><path class="cls-2" d="M447.83,159.77c-1.87-4.34-3.87-8.58-6-12.74l-87.79,87.79q.53,5.46.52,11.07V279l7.91,0,94.26-94.25A209.19,209.19,0,0,0,447.83,159.77Z" transform="translate(-22.36 -24.57)"/><path class="cls-2" d="M410.14,99.85l-78.55,78.56a114.23,114.23,0,0,1,14.33,24.44,101.74,101.74,0,0,1,3.75,10.08l82.8-82.8A220.34,220.34,0,0,0,410.14,99.85Z" transform="translate(-22.36 -24.57)"/><path class="cls-2" d="M368.22,62.87,287.09,144A112.29,112.29,0,0,1,319,164.66l78.26-78.25A220.47,220.47,0,0,0,368.22,62.87Z" transform="translate(-22.36 -24.57)"/><path class="cls-2" d="M330.11,42Q323,39,315.72,36.47l-98.8,98.8H244a110.93,110.93,0,0,1,23.15,2.39L352,52.84A235.73,235.73,0,0,0,330.11,42Z" transform="translate(-22.36 -24.57)"/><path class="cls-2" d="M248.55,24.73,138,135.27h52.6L295.34,30.55A221,221,0,0,0,248.55,24.73Z" transform="translate(-22.36 -24.57)"/><polygon class="cls-2" points="147.33 0.11 36.74 110.7 55.7 110.7 89.35 110.7 199.94 0.11 147.33 0.11"/><polygon class="cls-2" points="68.43 0.11 0.4 68.14 0.4 110.7 10.44 110.7 121.03 0.11 68.43 0.11"/><polygon class="cls-2" points="0.4 0.11 0.4 41.84 42.13 0.11 0.4 0.11"/><polygon class="cls-3" points="674.79 554.18 707.85 554.18 707.85 521.13 674.79 554.18"/><polygon class="cls-3" points="707.1 443.56 596.47 554.18 648.68 554.18 707.85 495.02 707.85 443.56 707.1 443.56"/><polygon class="cls-3" points="652.55 443.56 638.41 443.56 628.76 443.56 518.14 554.18 570.36 554.18 680.98 443.56 652.55 443.56"/><polygon class="cls-3" points="586.16 443.56 560.05 443.56 550.44 443.56 486.62 507.37 486.62 554.18 492.03 554.18 602.65 443.56 586.16 443.56"/><polygon class="cls-3" points="486.62 443.56 486.62 481.25 524.32 443.56 486.62 443.56"/><rect class="cls-4" x="54.95" y="442.34" width="0.37" height="0.43"/><path class="cls-5" d="M1440.91,578V467.33A55.23,55.23,0,0,1,1385.59,412V190.68a55.29,55.29,0,0,1,55.32-55.36h110.68a55.36,55.36,0,0,1,55.32,55.36v27.66h110.67V190.68a162.19,162.19,0,0,0-13-64.42A165.55,165.55,0,0,0,1616,37.71a162.14,162.14,0,0,0-64.42-13H1440.91a161.12,161.12,0,0,0-64.82,13A166.32,166.32,0,0,0,1288,126.26a161.5,161.5,0,0,0-13.06,64.42V412q0,34.78,13.06,64.81A167.15,167.15,0,0,0,1376.09,565q30,13.06,64.82,13" transform="translate(-22.36 -24.57)"/><polygon class="cls-2" points="55.32 405.71 165.63 405.71 165.63 364.91 128.63 364.91 128.63 327.97 165.63 327.97 165.63 254.13 128.76 254.13 128.76 290.95 55.32 290.95 55.32 405.71"/><rect class="cls-6" x="202.62" y="254.01" width="36.94" height="36.94"/><polygon class="cls-3" points="486.57 0 486.57 0.12 486.57 110.64 707.89 110.64 707.89 0.12 707.89 0 486.57 0"/><rect class="cls-7" x="468.03" y="290.96" width="36.94" height="36.94"/><polygon class="cls-7" points="652.57 327.97 652.57 147.61 541.89 147.61 541.89 327.97 504.98 327.97 504.98 364.91 541.89 364.91 541.89 443.53 652.57 443.53 652.57 364.92 615.63 364.92 615.63 327.97 652.57 327.97"/><rect class="cls-7" x="686.44" y="254.01" width="36.94" height="36.94"/><path class="cls-8" d="M1056.73,38v97.33a55.34,55.34,0,0,1,55.32,55.36v27.66h110.68V190.69a162,162,0,0,0-13.06-64.43,165.49,165.49,0,0,0-88.51-88.55,162,162,0,0,0-64.43-13V38Z" transform="translate(-22.36 -24.57)"/><path class="cls-8" d="M1112,279.2V389.88h0V412a55.28,55.28,0,0,1-55.32,55.32H946.05A55.23,55.23,0,0,1,890.73,412l0-110.66V279.2H780.09l0,132.81q0,34.78,13.06,64.81A167.11,167.11,0,0,0,881.23,565q30,13.08,64.82,13.06h110.68A161.55,161.55,0,0,0,1121.16,565a166.34,166.34,0,0,0,88.51-88.13A160.93,160.93,0,0,0,1222.73,412V279.2Z" transform="translate(-22.36 -24.57)"/><polygon class="cls-9" points="1052.73 365.31 1052.73 254.63 1015.77 254.63 1015.77 291.58 978.83 291.58 978.83 254.63 905.31 254.63 905.31 328.37 979.19 328.37 979.19 365.31 1052.73 365.31"/><polygon class="cls-1" points="1400.17 254.63 1400.17 291.43 1437.09 291.43 1474.04 291.43 1474.04 328.37 1437.09 328.37 1437.09 365.31 1547.59 365.31 1547.59 365.2 1547.59 254.63 1400.17 254.63"/><path class="cls-6" d="M465,278.58H298.86v36.94H261.92v37h0v37h87c-1.08,3.42-1.78,7-3.22,10.28a111.07,111.07,0,0,1-58.88,58.89,107.38,107.38,0,0,1-43.11,8.68H22.36V578H243.68q45.84,0,86.17-17.4A222.05,222.05,0,0,0,447.64,442.86a210.69,210.69,0,0,0,14.77-53.32c1.58-10.74,2.89-32.85,2.89-32.85V278.58Z" transform="translate(-22.36 -24.57)"/><polygon class="cls-10" points="868.39 254.78 868.39 253.26 866.88 254.77 868.39 254.78"/><polygon class="cls-9" points="866.88 254.77 868.39 253.26 868.39 201.04 814.72 254.72 866.88 254.77"/><polygon class="cls-9" points="1010.95 110.7 1034.31 87.34 1034.31 35.13 958.73 110.7 1010.95 110.7"/><path class="cls-9" d="M890.75,190.6a55.26,55.26,0,0,1,55.3-55.33H955L1056.67,33.58v-8.9h-43.31L780.13,257.91v21.31l30.87,0,79.75-79.76Z" transform="translate(-22.36 -24.57)"/><path class="cls-9" d="M946.05,24.68c-3.84,0-7.63.13-11.38.37L780.51,179.2c-.25,3.77-.38,7.56-.38,11.4v41.2L987.25,24.68Z" transform="translate(-22.36 -24.57)"/><path class="cls-9" d="M881.27,37.7a168.62,168.62,0,0,0-52.56,35.55,166.9,166.9,0,0,0-35.53,53A160,160,0,0,0,785.65,148l118-118A153.62,153.62,0,0,0,881.27,37.7Z" transform="translate(-22.36 -24.57)"/><path class="cls-1" d="M1616,565a166.37,166.37,0,0,0,88.47-88.09,153.71,153.71,0,0,0,7.33-20.91L1595.62,572.11A160.1,160.1,0,0,0,1616,565Z" transform="translate(-22.36 -24.57)"/><path class="cls-1" d="M1717.49,412.09V371.91L1511.4,578h40.17q6.32,0,12.49-.45l153-153Q1717.5,418.41,1717.49,412.09Z" transform="translate(-22.36 -24.57)"/><path class="cls-1" d="M1717.49,293.59,1606.87,404.21v7.88a55.28,55.28,0,0,1-55.3,55.3h-7.88L1441,570.13V578h44.34l232.2-232.21Z" transform="translate(-22.36 -24.57)"/><polygon class="cls-1" points="1443.01 442.82 1418.59 467.24 1418.59 519.46 1495.22 442.82 1443.01 442.82"/><polygon class="cls-1" points="1630.8 255.02 1584.51 301.32 1584.51 353.54 1683.02 255.02 1630.8 255.02"/><polygon class="cls-1" points="1584.51 255.02 1584.51 275.21 1604.69 255.02 1584.51 255.02"/></svg>